# Blender 4.1.1
# www.blender.org
mtllib Female.mtl
o Body
v 0.312109 3.122564 0.019976
v 0.333258 3.388206 -0.068356
v 0.307861 3.206687 -0.276532
v 0.333258 3.429251 -0.244429
v -0.000000 3.237231 -0.346079
v -0.000000 3.566338 -0.259101
v -0.000000 3.067111 0.292669
v -0.000000 3.390496 0.029865
v 0.239919 2.621809 0.000961
v 0.239919 2.618292 -0.117070
v -0.000000 2.618292 -0.220137
v 0.000000 2.621809 0.154419
v 0.350695 2.367727 0.005169
v 0.350695 2.367727 -0.274466
v 0.000000 2.238488 -0.432537
v 0.000000 2.367727 0.136616
v 0.388675 2.044894 -0.027368
v 0.395855 2.044894 -0.227857
v 0.000000 2.061147 -0.391576
v 0.000000 2.074417 0.072876
v 0.170213 3.503605 -0.241713
v 0.243117 3.069088 0.292669
v 0.145016 3.237231 -0.346079
v 0.170213 3.408856 -0.029116
v 0.149265 2.621809 0.154419
v 0.149265 2.618292 -0.220137
v 0.142378 2.367727 0.136616
v 0.142378 2.238488 -0.432537
v 0.058798 2.044894 0.072876
v 0.090746 1.986115 -0.389654
v 0.188667 0.233232 -0.119948
v 0.210830 0.233232 -0.297502
v 0.084722 0.233232 -0.119948
v 0.084722 0.233232 -0.297502
v 0.308950 1.247025 -0.087894
v 0.308090 1.258873 -0.267757
v 0.076666 1.259686 -0.296675
v 0.105069 1.247025 -0.019915
v 0.269833 1.082734 -0.104787
v 0.085537 1.095681 -0.364365
v 0.294196 1.095680 -0.337734
v 0.114035 1.085848 -0.039993
v 0.000000 2.870262 0.195397
v 0.268013 2.957666 0.062474
v 0.305504 2.999031 -0.180732
v 0.000000 2.978588 -0.276524
v 0.146796 2.978588 -0.276524
v 0.160630 2.870262 0.195397
v 0.191847 0.216272 -0.122068
v 0.214010 0.216272 -0.299622
v 0.087902 0.216272 -0.122068
v 0.087902 0.216272 -0.299622
v 0.216623 0.023563 -0.122068
v 0.230723 0.017000 -0.333541
v 0.087902 0.023563 -0.122068
v 0.071712 0.017000 -0.333541
v 0.241559 0.046027 0.247876
v 0.074978 0.046027 0.247876
v 0.241559 0.004593 0.223646
v 0.074978 0.004593 0.223646
v 0.221024 0.107899 0.068964
v 0.228625 0.006122 0.051332
v 0.072645 0.006122 0.051332
v 0.078907 0.107899 0.068964
v 0.179147 0.270845 -0.146351
v 0.195247 0.270845 -0.275339
v 0.103633 0.270845 -0.146351
v 0.103633 0.270845 -0.275339
v 0.096891 3.752563 -0.144042
v 0.000000 3.756515 -0.183908
v 0.137076 3.865790 -0.167573
v 0.000000 3.871549 -0.210067
v 0.000000 3.580857 0.167573
v 0.000000 3.899055 0.200386
v 0.057332 3.606133 0.139597
v 0.119239 3.672213 -0.031652
v 0.132571 3.858773 0.120057
v 0.156329 3.848159 0.000000
v -0.000000 3.589357 0.017849
v 0.130810 3.976884 -0.136922
v 0.000000 4.012588 -0.154853
v 0.129846 4.006122 -0.000883
v 0.000000 4.056672 0.000000
v 0.113144 3.963458 0.135650
v 0.000000 3.996511 0.168598
v 0.107900 3.463258 -0.202449
v -0.000000 3.467752 -0.247789
v 0.109942 3.388349 -0.068637
v -0.000000 3.340269 -0.010065
v 0.016088 3.726106 0.217916
v 0.016088 3.738542 0.230851
v 0.036458 3.718391 0.156994
v 0.010341 3.843303 0.180407
v 0.000000 3.716912 0.156994
v 0.000000 3.850052 0.180407
v 0.000000 3.724628 0.224375
v 0.000000 3.741254 0.239186
v 0.511666 3.205800 -0.057124
v 0.280306 3.266077 -0.112687
v 0.519348 3.142908 -0.288779
v 0.260703 3.209381 -0.233215
v 0.450295 3.395430 -0.057124
v 0.277311 3.397726 -0.134896
v 0.450112 3.412647 -0.288779
v 0.270776 3.397706 -0.211007
v 1.597553 3.102842 -0.130402
v 1.597553 3.102842 -0.215500
v 1.596228 3.187930 -0.130402
v 1.596228 3.187930 -0.215500
v 0.911098 3.129678 -0.247387
v 0.917665 3.176804 -0.067309
v 0.903495 3.267514 -0.083310
v 0.903129 3.279420 -0.243601
v 1.023988 3.112998 -0.240630
v 1.004548 3.254897 -0.077589
v 1.026640 3.162503 -0.061587
v 1.004548 3.254897 -0.236844
v 1.639712 3.120855 -0.131964
v 1.641540 3.120855 -0.207537
v 1.638509 3.156842 -0.131964
v 1.640337 3.150966 -0.207537
v 1.931910 3.147069 -0.110865
v 1.931910 3.147069 -0.231954
v 1.947930 3.168669 -0.103052
v 1.947930 3.169648 -0.238126
v 1.824085 3.189387 -0.100180
v 1.825913 3.191738 -0.240354
v 1.824447 3.164509 -0.231956
v 1.822619 3.156651 -0.108831
v 1.721694 3.168926 -0.220851
v 1.719513 3.136548 -0.120833
v 1.719481 3.176313 -0.112353
v 1.719898 3.144647 -0.219887
v 1.654014 3.117185 -0.087178
v 1.653175 3.145583 -0.087008
v 1.711933 3.128357 -0.088773
v 1.711910 3.160506 -0.088769
v 1.694993 3.113567 -0.029221
v 1.694652 3.130022 -0.028954
v 1.720845 3.119224 -0.043093
v 1.720835 3.135502 -0.043085
v 1.639712 3.120855 -0.170589
v 1.638509 3.169557 -0.170589
v 1.931910 3.147069 -0.170589
v 1.947930 3.176046 -0.170589
v 1.822619 3.167265 -0.170589
v 1.824085 3.204234 -0.170589
v 1.719866 3.184759 -0.170589
v 1.719898 3.146044 -0.170589
v 1.570443 3.123811 -0.171809
v 1.570443 3.123811 -0.144090
v 1.570892 3.145420 -0.194004
v 1.571755 3.123811 -0.194004
v 1.569580 3.156571 -0.171809
v 1.569580 3.147446 -0.144090
v -0.312109 3.122564 0.019976
v -0.333258 3.388206 -0.068356
v -0.307861 3.206687 -0.276532
v -0.333258 3.429251 -0.244429
v -0.239919 2.621809 0.000961
v -0.239919 2.618292 -0.117070
v -0.350695 2.367727 0.005169
v -0.350695 2.367727 -0.274466
v -0.388675 2.044894 -0.027368
v -0.395855 2.044894 -0.227857
v -0.170213 3.503605 -0.241713
v -0.243117 3.069088 0.292669
v -0.145016 3.237231 -0.346079
v -0.170213 3.408856 -0.029116
v -0.149265 2.621809 0.154419
v -0.149265 2.618292 -0.220137
v -0.142378 2.367727 0.136616
v -0.142378 2.238488 -0.432537
v -0.058798 2.044894 0.072876
v -0.090746 1.986115 -0.389654
v -0.188667 0.233232 -0.119948
v -0.210830 0.233232 -0.297502
v -0.084722 0.233232 -0.119948
v -0.084722 0.233232 -0.297502
v -0.308950 1.247025 -0.087894
v -0.308090 1.258873 -0.267757
v -0.076666 1.259686 -0.296675
v -0.105069 1.247025 -0.019915
v -0.269833 1.082734 -0.104787
v -0.085537 1.095681 -0.364365
v -0.294196 1.095680 -0.337734
v -0.114035 1.085848 -0.039993
v -0.268013 2.957666 0.062474
v -0.305504 2.999031 -0.180732
v -0.146796 2.978588 -0.276524
v -0.160630 2.870262 0.195397
v -0.191847 0.216272 -0.122068
v -0.214010 0.216272 -0.299622
v -0.087902 0.216272 -0.122068
v -0.087902 0.216272 -0.299622
v -0.216623 0.023563 -0.122068
v -0.230723 0.017000 -0.333541
v -0.087902 0.023563 -0.122068
v -0.071712 0.017000 -0.333541
v -0.241559 0.046027 0.247876
v -0.074978 0.046027 0.247876
v -0.241559 0.004593 0.223646
v -0.074978 0.004593 0.223646
v -0.221024 0.107899 0.068964
v -0.228625 0.006122 0.051332
v -0.072645 0.006122 0.051332
v -0.078907 0.107899 0.068964
v -0.179147 0.270845 -0.146351
v -0.195247 0.270845 -0.275339
v -0.103633 0.270845 -0.146351
v -0.103633 0.270845 -0.275339
v -0.096891 3.752563 -0.144042
v -0.137076 3.865790 -0.167573
v -0.057332 3.606133 0.139597
v -0.119239 3.672213 -0.031652
v -0.132571 3.858773 0.120057
v -0.156329 3.848159 0.000000
v -0.130810 3.976884 -0.136922
v -0.129846 4.006122 -0.000883
v -0.113144 3.963458 0.135650
v -0.107900 3.463258 -0.202449
v -0.109942 3.388349 -0.068637
v -0.016088 3.726106 0.217916
v -0.016088 3.738542 0.230851
v -0.036458 3.718391 0.156994
v -0.010341 3.843303 0.180407
v -0.511666 3.205800 -0.057124
v -0.280306 3.266077 -0.112687
v -0.519348 3.142907 -0.288779
v -0.260703 3.209381 -0.233215
v -0.450295 3.395430 -0.057124
v -0.277311 3.397725 -0.134896
v -0.450112 3.412647 -0.288779
v -0.270776 3.397706 -0.211007
v -1.597553 3.102842 -0.130402
v -1.597553 3.102842 -0.215500
v -1.596228 3.187930 -0.130402
v -1.596228 3.187930 -0.215500
v -0.911098 3.129678 -0.247387
v -0.917665 3.176803 -0.067309
v -0.903495 3.267514 -0.083310
v -0.903129 3.279420 -0.243601
v -1.023988 3.112998 -0.240630
v -1.004548 3.254897 -0.077589
v -1.026640 3.162503 -0.061587
v -1.004548 3.254897 -0.236843
v -1.639712 3.120855 -0.131964
v -1.641540 3.120855 -0.207537
v -1.638509 3.156842 -0.131964
v -1.640337 3.150966 -0.207537
v -1.931910 3.147069 -0.110865
v -1.931910 3.147069 -0.231954
v -1.947930 3.168669 -0.103052
v -1.947930 3.169648 -0.238126
v -1.824085 3.189387 -0.100180
v -1.825913 3.191738 -0.240354
v -1.824447 3.164509 -0.231956
v -1.822619 3.156651 -0.108831
v -1.721694 3.168926 -0.220851
v -1.719514 3.136548 -0.120833
v -1.719481 3.176313 -0.112353
v -1.719898 3.144647 -0.219887
v -1.654014 3.117185 -0.087178
v -1.653175 3.145583 -0.087008
v -1.711933 3.128357 -0.088773
v -1.711910 3.160506 -0.088769
v -1.694993 3.113567 -0.029221
v -1.694652 3.130022 -0.028954
v -1.720845 3.119224 -0.043093
v -1.720836 3.135502 -0.043085
v -1.639712 3.120855 -0.170589
v -1.638509 3.169556 -0.170589
v -1.931910 3.147069 -0.170589
v -1.947930 3.176046 -0.170589
v -1.822619 3.167265 -0.170589
v -1.824085 3.204234 -0.170589
v -1.719866 3.184759 -0.170589
v -1.719898 3.146044 -0.170589
v -1.570443 3.123811 -0.171809
v -1.570443 3.123811 -0.144090
v -1.570892 3.145420 -0.194004
v -1.571755 3.123811 -0.194004
v -1.569580 3.156571 -0.171809
v -1.569580 3.147446 -0.144090
vn 0.2669 0.2334 -0.9351
vn 0.9945 -0.0989 -0.0351
vn 0.9877 -0.1288 0.0890
vn 0.1702 0.8672 0.4679
vn 0.0735 0.6640 0.7441
vn -0.0000 -0.0699 0.9976
vn -0.0000 -0.1627 0.9867
vn 0.6225 -0.1765 -0.7624
vn -0.0292 -0.1987 0.9796
vn 0.4313 0.5083 -0.7454
vn 0.9152 0.4029 -0.0036
vn 0.9896 -0.0935 0.1092
vn 0.5588 -0.1336 -0.8184
vn 0.9917 0.1280 0.0148
vn -0.0515 -0.1853 -0.9813
vn -0.5728 -0.8185 0.0439
vn -0.0000 0.4881 -0.8728
vn 0.3901 -0.1627 0.9063
vn -0.0000 -0.1546 -0.9880
vn 0.8340 -0.1495 0.5311
vn 0.6848 0.1208 0.7186
vn 0.6967 0.4422 0.5648
vn 0.3026 0.8998 0.3144
vn 0.1119 0.2997 -0.9474
vn -0.0000 -1.0000 -0.0000
vn -0.9982 0.0171 0.0570
vn 0.0791 -0.0656 -0.9947
vn 0.2407 -0.0697 0.9681
vn 0.2992 -0.0975 0.9492
vn 0.3398 -0.0558 -0.9389
vn -0.9998 -0.0211 -0.0035
vn 0.9943 -0.1060 0.0132
vn 0.3420 -0.1373 0.9296
vn 0.1163 0.3837 -0.9161
vn -0.9927 -0.0790 0.0910
vn 0.9841 -0.1714 0.0457
vn 0.8968 -0.3524 0.2676
vn -0.0000 -0.2597 -0.9657
vn 0.4283 -0.3025 -0.8515
vn 0.0022 -0.4416 0.8972
vn 0.9932 -0.1107 0.0354
vn -0.0000 0.4065 -0.9136
vn -0.0000 -0.9995 0.0310
vn -0.0000 0.1678 -0.9858
vn 0.9911 0.0971 0.0907
vn -0.9985 0.0377 0.0409
vn 0.9938 0.0764 -0.0809
vn -0.0000 -0.5048 0.8632
vn -0.9991 0.0428 0.0032
vn -0.0000 -1.0000 -0.0089
vn -0.0000 0.9451 0.3268
vn -0.0000 0.8698 0.4934
vn -0.0000 -0.9950 -0.1001
vn -0.9980 0.0247 -0.0579
vn 0.9909 0.1133 -0.0728
vn -0.0000 1.0000 -0.0000
vn 0.9540 0.2750 0.1191
vn -0.9609 0.2770 -0.0000
vn -0.0000 0.4065 0.9136
vn 0.3117 -0.2542 -0.9155
vn 0.2551 0.3174 -0.9133
vn 0.4886 -0.0846 0.8684
vn 0.4438 0.1139 0.8889
vn 0.9402 -0.2529 0.2283
vn 0.9427 -0.2456 -0.2260
vn 0.9718 0.1602 0.1732
vn 0.9897 0.1276 -0.0645
vn 0.4842 -0.8682 -0.1084
vn 0.9960 0.0176 -0.0876
vn 0.3192 0.9192 -0.2306
vn 0.3477 0.8826 0.3164
vn 0.4765 -0.1145 0.8717
vn 0.3835 0.1981 -0.9020
vn 0.9648 0.1218 0.2329
vn 0.0717 -0.9889 0.1303
vn 0.4070 0.4246 0.8087
vn 0.2927 -0.6603 0.6916
vn -0.2373 -0.9174 0.3195
vn -0.2903 0.0089 -0.9569
vn -0.0358 0.9978 0.0565
vn -0.3127 0.0030 0.9498
vn -0.0528 -0.9814 0.1845
vn -0.9963 -0.0082 0.0855
vn 0.9999 0.0156 -0.0000
vn 0.1125 0.9937 -0.0000
vn 0.1147 0.1042 0.9879
vn 0.0412 0.0204 -0.9989
vn 0.1068 0.0286 -0.9939
vn 0.0553 0.0717 0.9959
vn 0.2748 0.9589 0.0709
vn -0.0611 -0.9643 0.2575
vn 0.0691 0.0324 -0.9971
vn -0.0324 0.1658 0.9856
vn 0.1781 0.9833 0.0364
vn -0.1479 -0.9541 0.2605
vn -0.9889 0.0359 0.1439
vn -0.0427 -0.9991 -0.0023
vn 0.8782 -0.4782 -0.0035
vn 0.1931 0.9687 0.1561
vn -0.1710 -0.9851 0.0196
vn -0.0169 -0.2850 0.9584
vn -0.0369 -0.2686 -0.9625
vn -0.1131 -0.1707 -0.9788
vn -0.0766 -0.2279 0.9707
vn 0.1965 -0.9797 0.0400
vn -0.1616 0.9712 0.1754
vn -0.2282 0.9514 0.2069
vn 0.2967 -0.9547 0.0218
vn 0.9676 -0.0289 0.2510
vn -0.1546 -0.0158 -0.9878
vn -0.1375 0.8980 0.4180
vn 0.8032 -0.5957 -0.0000
vn 0.1999 -0.9656 -0.1665
vn -0.2666 0.8867 0.3778
vn -0.9527 -0.0310 0.3024
vn 0.4743 -0.0023 0.8804
vn -0.8169 -0.0271 0.5761
vn 0.9815 0.0007 -0.1914
vn 0.1584 -0.9679 -0.1953
vn 0.2529 -0.9621 -0.1023
vn -0.2145 0.9054 -0.3664
vn -0.2141 0.9492 -0.2306
vn 0.2036 -0.9636 -0.1731
vn -0.1353 -0.9870 -0.0862
vn 0.1998 0.9711 -0.1310
vn -0.1726 -0.0060 0.9850
vn -0.9995 -0.0306 -0.0050
vn -0.9982 -0.0317 -0.0510
vn -0.1907 -0.0076 -0.9816
vn -0.1814 0.9341 0.3075
vn -0.1578 0.8788 -0.4503
vn -0.0426 -0.9991 -0.0000
vn -0.2669 0.2334 -0.9351
vn -0.9945 -0.0989 -0.0351
vn -0.9877 -0.1288 0.0890
vn -0.1702 0.8672 0.4679
vn -0.0735 0.6640 0.7441
vn -0.6225 -0.1765 -0.7624
vn 0.0292 -0.1987 0.9796
vn -0.4313 0.5083 -0.7454
vn -0.9152 0.4029 -0.0036
vn -0.9896 -0.0935 0.1092
vn -0.5588 -0.1336 -0.8184
vn -0.9917 0.1280 0.0148
vn 0.0515 -0.1853 -0.9813
vn 0.5728 -0.8185 0.0439
vn -0.3901 -0.1627 0.9063
vn -0.8340 -0.1495 0.5311
vn -0.6848 0.1208 0.7186
vn -0.6967 0.4422 0.5648
vn -0.3026 0.8998 0.3144
vn -0.1119 0.2997 -0.9474
vn 0.9982 0.0171 0.0570
vn -0.0791 -0.0656 -0.9947
vn -0.2407 -0.0697 0.9681
vn -0.2992 -0.0975 0.9492
vn -0.3398 -0.0558 -0.9389
vn 0.9998 -0.0211 -0.0035
vn -0.9943 -0.1060 0.0132
vn -0.3420 -0.1373 0.9296
vn -0.1163 0.3837 -0.9161
vn 0.9927 -0.0790 0.0910
vn -0.9841 -0.1714 0.0457
vn -0.8968 -0.3524 0.2676
vn -0.4283 -0.3025 -0.8515
vn -0.0022 -0.4416 0.8972
vn -0.9932 -0.1107 0.0354
vn -0.9911 0.0971 0.0907
vn 0.9985 0.0377 0.0409
vn -0.9938 0.0764 -0.0809
vn 0.9991 0.0428 0.0032
vn 0.9980 0.0247 -0.0579
vn -0.9909 0.1133 -0.0728
vn -0.9540 0.2750 0.1191
vn 0.9609 0.2770 -0.0000
vn -0.3117 -0.2542 -0.9155
vn -0.2551 0.3174 -0.9133
vn -0.4886 -0.0846 0.8684
vn -0.4438 0.1139 0.8889
vn -0.9402 -0.2529 0.2283
vn -0.9427 -0.2456 -0.2260
vn -0.9718 0.1602 0.1732
vn -0.9897 0.1276 -0.0645
vn -0.4842 -0.8682 -0.1084
vn -0.9960 0.0176 -0.0876
vn -0.3192 0.9192 -0.2306
vn -0.3477 0.8826 0.3164
vn -0.4765 -0.1145 0.8717
vn -0.3835 0.1981 -0.9020
vn -0.9648 0.1218 0.2329
vn -0.0717 -0.9889 0.1303
vn -0.4070 0.4246 0.8087
vn -0.2927 -0.6603 0.6916
vn 0.2373 -0.9174 0.3195
vn 0.2903 0.0089 -0.9569
vn 0.0358 0.9978 0.0565
vn 0.3127 0.0030 0.9498
vn 0.0528 -0.9814 0.1845
vn 0.9963 -0.0082 0.0855
vn -0.9999 0.0156 -0.0000
vn -0.1125 0.9937 -0.0000
vn -0.1147 0.1042 0.9879
vn -0.0412 0.0204 -0.9989
vn -0.1068 0.0286 -0.9939
vn -0.0553 0.0717 0.9959
vn -0.2748 0.9589 0.0709
vn 0.0611 -0.9643 0.2575
vn -0.0691 0.0324 -0.9971
vn 0.0324 0.1658 0.9856
vn -0.1781 0.9833 0.0364
vn 0.1479 -0.9541 0.2605
vn 0.9889 0.0359 0.1439
vn 0.0427 -0.9991 -0.0023
vn -0.8782 -0.4782 -0.0035
vn -0.1931 0.9687 0.1561
vn 0.1710 -0.9851 0.0196
vn 0.0169 -0.2850 0.9584
vn 0.0369 -0.2686 -0.9625
vn 0.1131 -0.1707 -0.9788
vn 0.0766 -0.2279 0.9707
vn -0.1965 -0.9797 0.0400
vn 0.1616 0.9712 0.1754
vn 0.2282 0.9514 0.2069
vn -0.2967 -0.9547 0.0218
vn -0.9676 -0.0289 0.2510
vn 0.1546 -0.0158 -0.9878
vn 0.1375 0.8980 0.4180
vn -0.8032 -0.5957 -0.0000
vn -0.1999 -0.9656 -0.1665
vn 0.2666 0.8867 0.3778
vn 0.9527 -0.0310 0.3024
vn -0.4743 -0.0023 0.8804
vn 0.8169 -0.0271 0.5761
vn -0.9815 0.0007 -0.1914
vn -0.1584 -0.9679 -0.1953
vn -0.2529 -0.9621 -0.1023
vn 0.2145 0.9054 -0.3664
vn 0.2141 0.9492 -0.2306
vn -0.2036 -0.9636 -0.1731
vn 0.1353 -0.9870 -0.0862
vn -0.1998 0.9711 -0.1310
vn 0.1726 -0.0060 0.9850
vn 0.9995 -0.0306 -0.0050
vn 0.9982 -0.0317 -0.0510
vn 0.1907 -0.0076 -0.9816
vn 0.1814 0.9341 0.3075
vn 0.1578 0.8788 -0.4503
vn 0.0426 -0.9991 -0.0000
vt 0.375000 0.437500
vt 0.625000 0.437500
vt 0.625000 0.500000
vt 0.375000 0.500000
vt 0.625000 0.750000
vt 0.375000 0.750000
vt 0.375000 0.500000
vt 0.687500 0.500000
vt 0.750000 0.500000
vt 0.750000 0.750000
vt 0.687500 0.750000
vt 0.375000 0.812500
vt 0.625000 0.812500
vt 0.625000 0.875000
vt 0.375000 0.875000
vt 0.375000 0.812500
vt 0.375000 0.437500
vt 0.375000 0.437500
vt 0.375000 0.500000
vt 0.375000 0.750000
vt 0.375000 0.375000
vt 0.250000 0.500000
vt 0.312500 0.500000
vt 0.312500 0.750000
vt 0.250000 0.750000
vt 0.625000 0.375000
vt 0.375000 0.812500
vt 0.000000 0.000000
vt 0.375000 0.000000
vt 0.625000 0.000000
vt 0.625000 0.250000
vt 0.375000 0.250000
vt 0.625000 1.000000
vt 0.375000 1.000000
vt 0.875000 0.750000
vt 0.125000 0.500000
vt 0.125000 0.750000
vt 0.375000 0.500000
vt 0.875000 0.500000
vt 0.125000 0.625000
vt 0.375000 0.625000
vt 0.125000 0.625000
vt 0.124999 0.500000
vt 0.125000 0.750000
vt 0.125000 0.625000
s 0
f 23/1/1 21/2/1 4/3/1 3/4/1
f 3/4/2 4/3/2 2/5/2 1/6/2
f 45/7/3 44/6/3 9/6/3 10/4/3
f 21/8/4 6/9/4 8/10/4 24/11/4
f 22/12/5 24/13/5 8/14/5 7/15/5
f 25/12/6 12/15/6 16/15/6 27/16/6
f 48/12/7 43/15/7 12/15/7 25/12/7
f 47/1/8 45/7/8 10/4/8 26/17/8
f 27/16/9 16/15/9 20/15/9 29/12/9
f 26/17/10 10/4/10 14/4/10 28/18/10
f 10/4/11 9/6/11 13/6/11 14/4/11
f 41/19/12 39/20/12 31/6/12 32/4/12
f 28/18/13 14/4/13 18/4/13 30/18/13
f 14/4/14 13/6/14 17/6/14 18/4/14
f 15/21/15 28/18/15 30/18/15 19/21/15
f 19/22/16 30/23/16 29/24/16 20/25/16
f 11/21/17 26/17/17 28/18/17 15/21/17
f 13/6/18 27/16/18 29/12/18 17/6/18
f 46/21/19 47/1/19 26/17/19 11/21/19
f 44/6/20 48/12/20 25/12/20 9/6/20
f 9/6/21 25/12/21 27/16/21 13/6/21
f 1/6/22 2/5/22 24/13/22 22/12/22
f 4/3/23 21/8/23 24/11/23 2/5/23
f 5/21/24 6/26/24 21/2/24 23/1/24
f 34/23/25 32/4/25 31/6/25 33/24/25
f 42/24/26 40/23/26 34/23/26 33/24/26
f 40/18/27 41/19/27 32/4/27 34/18/27
f 39/20/28 42/27/28 33/12/28 31/6/28
f 17/6/29 29/12/29 38/12/29 35/6/29
f 30/18/30 18/4/30 36/4/30 37/18/30
f 29/24/31 30/23/31 37/23/31 38/24/31
f 18/4/32 17/6/32 35/6/32 36/4/32
f 35/6/33 38/12/33 42/27/33 39/20/33
f 37/18/34 36/4/34 41/19/34 40/18/34
f 38/24/35 37/23/35 40/23/35 42/24/35
f 36/4/36 35/6/36 39/20/36 41/19/36
f 1/6/37 22/12/37 48/12/37 44/6/37
f 5/21/38 23/1/38 47/1/38 46/21/38
f 23/1/39 3/4/39 45/7/39 47/1/39
f 22/12/40 7/15/40 43/15/40 48/12/40
f 3/4/41 1/6/41 44/6/41 45/7/41
f 50/4/42 52/23/42 68/23/42 66/4/42
f 56/23/43 54/4/43 53/6/43 55/24/43
f 52/23/44 50/4/44 54/4/44 56/23/44
f 50/4/45 49/6/45 53/6/45 54/4/45
f 51/24/46 52/23/46 56/23/46 55/24/46
f 62/6/47 61/6/47 57/6/47 59/6/47
f 57/6/48 58/24/48 60/24/48 59/6/48
f 64/24/49 63/24/49 60/24/49 58/24/49
f 63/24/50 62/6/50 59/6/50 60/24/50
f 61/6/51 64/24/51 58/24/51 57/6/51
f 49/6/52 51/24/52 64/24/52 61/6/52
f 55/24/53 53/6/53 62/6/53 63/24/53
f 51/24/54 55/24/54 63/24/54 64/24/54
f 53/6/55 49/6/55 61/6/55 62/6/55
f 68/23/56 67/24/56 65/6/56 66/4/56
f 49/6/57 50/4/57 66/4/57 65/6/57
f 52/23/58 51/24/58 67/24/58 68/23/58
f 51/24/59 49/6/59 65/6/59 67/24/59
f 69/28/60 70/28/60 72/28/60 71/28/60
f 71/28/61 72/28/61 81/28/61 80/28/61
f 73/28/62 75/28/62 77/28/62 74/28/62
f 74/28/63 77/28/63 84/28/63 85/28/63
f 75/28/64 76/28/64 78/28/64 77/28/64
f 76/28/65 69/28/65 71/28/65 78/28/65
f 77/28/66 78/28/66 82/28/66 84/28/66
f 78/28/67 71/28/67 80/28/67 82/28/67
f 75/28/68 73/28/68 79/28/68 76/28/68
f 69/28/69 76/28/69 88/28/69 86/28/69
f 80/28/70 81/28/70 83/28/70 82/28/70
f 82/28/71 83/28/71 85/28/71 84/28/71
f 76/28/72 79/28/72 89/28/72 88/28/72
f 70/28/73 69/28/73 86/28/73 87/28/73
f 92/4/74 93/3/74 91/5/74 90/6/74
f 94/22/75 92/4/75 90/6/75 96/25/75
f 93/3/76 95/9/76 97/10/76 91/5/76
f 90/6/77 91/5/77 97/14/77 96/15/77
f 98/29/78 99/30/78 101/31/78 100/32/78
f 100/32/79 101/31/79 105/3/79 104/4/79
f 104/4/80 105/3/80 103/5/80 102/6/80
f 102/6/81 103/5/81 99/33/81 98/34/81
f 116/29/82 114/32/82 107/32/82 106/29/82
f 105/3/83 99/35/83 103/5/83
f 107/36/84 109/4/84 108/6/84 106/37/84
f 117/7/85 115/6/85 108/6/85 109/4/85
f 115/6/86 116/34/86 106/34/86 108/6/86
f 114/32/87 117/7/87 109/4/87 107/32/87
f 100/32/88 104/4/88 113/38/88 110/32/88
f 102/6/89 98/34/89 111/34/89 112/6/89
f 104/4/90 102/6/90 112/6/90 113/38/90
f 98/29/91 100/32/91 110/32/91 111/29/91
f 110/32/92 113/38/92 117/7/92 114/32/92
f 112/6/93 111/34/93 116/34/93 115/6/93
f 113/38/94 112/6/94 115/6/94 117/7/94
f 111/29/95 110/32/95 114/32/95 116/29/95
f 99/35/96 105/3/96 101/39/96
f 119/36/97 142/40/97 150/40/97 153/36/97
f 123/36/98 125/4/98 145/41/98 124/6/98
f 147/41/99 126/6/99 124/6/99 145/41/99
f 146/40/100 128/36/100 123/36/100 144/42/100
f 126/6/101 129/37/101 122/37/101 124/6/101
f 128/36/102 127/4/102 125/4/102 123/36/102
f 133/43/103 130/4/103 127/4/103 128/36/103
f 132/20/104 131/44/104 129/37/104 126/6/104
f 149/45/105 133/43/105 128/36/105 146/40/105
f 148/41/106 132/20/106 126/6/106 147/41/106
f 143/41/107 120/6/107 132/20/107 148/41/107
f 142/40/108 119/36/108 133/43/108 149/45/108
f 131/44/109 132/20/109 137/20/109 136/44/109
f 119/36/110 121/4/110 130/4/110 133/43/110
f 137/20/111 135/6/111 139/6/111 141/20/111
f 124/6/112 122/37/112 144/42/112 123/36/112
f 118/37/113 131/44/113 136/44/113 134/37/113
f 132/20/114 120/6/114 135/6/114 137/20/114
f 120/6/115 118/37/115 134/37/115 135/6/115
f 139/6/116 138/37/116 140/44/116 141/20/116
f 135/6/117 134/37/117 138/37/117 139/6/117
f 136/44/118 137/20/118 141/20/118 140/44/118
f 134/37/119 136/44/119 140/44/119 138/37/119
f 118/37/120 142/40/120 149/45/120 131/44/120
f 121/4/121 143/41/121 148/41/121 130/4/121
f 130/4/122 148/41/122 147/41/122 127/4/122
f 131/44/123 149/45/123 146/40/123 129/37/123
f 129/37/124 146/40/124 144/42/124 122/37/124
f 127/4/125 147/41/125 145/41/125 125/4/125
f 118/37/126 120/6/126 155/6/126 151/37/126
f 150/40/127 151/37/127 155/6/127 154/41/127
f 153/36/128 150/40/128 154/41/128 152/4/128
f 121/4/129 119/36/129 153/36/129 152/4/129
f 120/6/130 143/41/130 154/41/130 155/6/130
f 143/41/131 121/4/131 152/4/131 154/41/131
f 142/40/132 118/37/132 151/37/132 150/40/132
f 168/1/133 158/4/133 159/3/133 166/2/133
f 158/4/134 156/6/134 157/5/134 159/3/134
f 189/7/135 161/4/135 160/6/135 188/6/135
f 166/8/136 169/11/136 8/10/136 6/9/136
f 167/12/137 7/15/137 8/14/137 169/13/137
f 170/12/6 172/16/6 16/15/6 12/15/6
f 191/12/7 170/12/7 12/15/7 43/15/7
f 190/1/138 171/17/138 161/4/138 189/7/138
f 172/16/139 174/12/139 20/15/139 16/15/139
f 171/17/140 173/18/140 163/4/140 161/4/140
f 161/4/141 163/4/141 162/6/141 160/6/141
f 186/19/142 177/4/142 176/6/142 184/20/142
f 173/18/143 175/18/143 165/4/143 163/4/143
f 163/4/144 165/4/144 164/6/144 162/6/144
f 15/21/145 19/21/145 175/18/145 173/18/145
f 19/22/146 20/25/146 174/24/146 175/23/146
f 11/21/17 15/21/17 173/18/17 171/17/17
f 162/6/147 164/6/147 174/12/147 172/16/147
f 46/21/19 11/21/19 171/17/19 190/1/19
f 188/6/148 160/6/148 170/12/148 191/12/148
f 160/6/149 162/6/149 172/16/149 170/12/149
f 156/6/150 167/12/150 169/13/150 157/5/150
f 159/3/151 157/5/151 169/11/151 166/8/151
f 5/21/152 168/1/152 166/2/152 6/26/152
f 179/23/25 178/24/25 176/6/25 177/4/25
f 187/24/153 178/24/153 179/23/153 185/23/153
f 185/18/154 179/18/154 177/4/154 186/19/154
f 184/20/155 176/6/155 178/12/155 187/27/155
f 164/6/156 180/6/156 183/12/156 174/12/156
f 175/18/157 182/18/157 181/4/157 165/4/157
f 174/24/158 183/24/158 182/23/158 175/23/158
f 165/4/159 181/4/159 180/6/159 164/6/159
f 180/6/160 184/20/160 187/27/160 183/12/160
f 182/18/161 185/18/161 186/19/161 181/4/161
f 183/24/162 187/24/162 185/23/162 182/23/162
f 181/4/163 186/19/163 184/20/163 180/6/163
f 156/6/164 188/6/164 191/12/164 167/12/164
f 5/21/38 46/21/38 190/1/38 168/1/38
f 168/1/165 190/1/165 189/7/165 158/4/165
f 167/12/166 191/12/166 43/15/166 7/15/166
f 158/4/167 189/7/167 188/6/167 156/6/167
f 193/4/42 209/4/42 211/23/42 195/23/42
f 199/23/43 198/24/43 196/6/43 197/4/43
f 195/23/44 199/23/44 197/4/44 193/4/44
f 193/4/168 197/4/168 196/6/168 192/6/168
f 194/24/169 198/24/169 199/23/169 195/23/169
f 205/6/170 202/6/170 200/6/170 204/6/170
f 200/6/48 202/6/48 203/24/48 201/24/48
f 207/24/171 201/24/171 203/24/171 206/24/171
f 206/24/50 203/24/50 202/6/50 205/6/50
f 204/6/51 200/6/51 201/24/51 207/24/51
f 192/6/52 204/6/52 207/24/52 194/24/52
f 198/24/53 206/24/53 205/6/53 196/6/53
f 194/24/172 207/24/172 206/24/172 198/24/172
f 196/6/173 205/6/173 204/6/173 192/6/173
f 211/23/56 209/4/56 208/6/56 210/24/56
f 192/6/174 208/6/174 209/4/174 193/4/174
f 195/23/175 211/23/175 210/24/175 194/24/175
f 194/24/59 210/24/59 208/6/59 192/6/59
f 212/28/176 213/28/176 72/28/176 70/28/176
f 213/28/177 218/28/177 81/28/177 72/28/177
f 73/28/178 74/28/178 216/28/178 214/28/178
f 74/28/179 85/28/179 220/28/179 216/28/179
f 214/28/180 216/28/180 217/28/180 215/28/180
f 215/28/181 217/28/181 213/28/181 212/28/181
f 216/28/182 220/28/182 219/28/182 217/28/182
f 217/28/183 219/28/183 218/28/183 213/28/183
f 214/28/184 215/28/184 79/28/184 73/28/184
f 212/28/185 221/28/185 222/28/185 215/28/185
f 218/28/186 219/28/186 83/28/186 81/28/186
f 219/28/187 220/28/187 85/28/187 83/28/187
f 215/28/188 222/28/188 89/28/188 79/28/188
f 70/28/189 87/28/189 221/28/189 212/28/189
f 225/4/190 223/6/190 224/5/190 226/3/190
f 94/22/191 96/25/191 223/6/191 225/4/191
f 226/3/192 224/5/192 97/10/192 95/9/192
f 223/6/193 96/15/193 97/14/193 224/5/193
f 227/29/194 229/32/194 230/31/194 228/30/194
f 229/32/195 233/4/195 234/3/195 230/31/195
f 233/4/196 231/6/196 232/5/196 234/3/196
f 231/6/197 227/34/197 228/33/197 232/5/197
f 245/29/198 235/29/198 236/32/198 243/32/198
f 234/3/199 232/5/199 228/35/199
f 236/36/200 235/37/200 237/6/200 238/4/200
f 246/7/201 238/4/201 237/6/201 244/6/201
f 244/6/202 237/6/202 235/34/202 245/34/202
f 243/32/203 236/32/203 238/4/203 246/7/203
f 229/32/204 239/32/204 242/38/204 233/4/204
f 231/6/205 241/6/205 240/34/205 227/34/205
f 233/4/206 242/38/206 241/6/206 231/6/206
f 227/29/207 240/29/207 239/32/207 229/32/207
f 239/32/208 243/32/208 246/7/208 242/38/208
f 241/6/209 244/6/209 245/34/209 240/34/209
f 242/38/210 246/7/210 244/6/210 241/6/210
f 240/29/211 245/29/211 243/32/211 239/32/211
f 228/35/212 230/39/212 234/3/212
f 248/36/213 282/36/213 279/40/213 271/40/213
f 252/36/214 253/6/214 274/41/214 254/4/214
f 276/41/215 274/41/215 253/6/215 255/6/215
f 275/40/216 273/42/216 252/36/216 257/36/216
f 255/6/217 253/6/217 251/37/217 258/37/217
f 257/36/218 252/36/218 254/4/218 256/4/218
f 262/43/219 257/36/219 256/4/219 259/4/219
f 261/20/220 255/6/220 258/37/220 260/44/220
f 278/45/221 275/40/221 257/36/221 262/43/221
f 277/41/222 276/41/222 255/6/222 261/20/222
f 272/41/223 277/41/223 261/20/223 249/6/223
f 271/40/224 278/45/224 262/43/224 248/36/224
f 260/44/225 265/44/225 266/20/225 261/20/225
f 248/36/226 262/43/226 259/4/226 250/4/226
f 266/20/227 270/20/227 268/6/227 264/6/227
f 253/6/228 252/36/228 273/42/228 251/37/228
f 247/37/229 263/37/229 265/44/229 260/44/229
f 261/20/230 266/20/230 264/6/230 249/6/230
f 249/6/231 264/6/231 263/37/231 247/37/231
f 268/6/232 270/20/232 269/44/232 267/37/232
f 264/6/233 268/6/233 267/37/233 263/37/233
f 265/44/234 269/44/234 270/20/234 266/20/234
f 263/37/235 267/37/235 269/44/235 265/44/235
f 247/37/236 260/44/236 278/45/236 271/40/236
f 250/4/237 259/4/237 277/41/237 272/41/237
f 259/4/238 256/4/238 276/41/238 277/41/238
f 260/44/239 258/37/239 275/40/239 278/45/239
f 258/37/240 251/37/240 273/42/240 275/40/240
f 256/4/241 254/4/241 274/41/241 276/41/241
f 247/37/242 280/37/242 284/6/242 249/6/242
f 279/40/243 283/41/243 284/6/243 280/37/243
f 282/36/244 281/4/244 283/41/244 279/40/244
f 250/4/245 281/4/245 282/36/245 248/36/245
f 249/6/246 284/6/246 283/41/246 272/41/246
f 272/41/247 283/41/247 281/4/247 250/4/247
f 271/40/248 279/40/248 280/37/248 247/37/248
